/* XPM */
static char *ebec2f22fff94b2c818e3d1ef413808c3MkaqPbvQRRguSRz[] = {
/* columns rows colors chars-per-pixel */
"60 60 256 2 ",
"   c #372B1A",
".  c #393219",
"X  c #2B2D0D",
"o  c #182E2C",
"O  c #3D2D23",
"+  c #382C25",
"@  c #283426",
"#  c #3C3224",
"$  c #3B352B",
"%  c #3B3A2D",
"&  c #363527",
"*  c #242A36",
"=  c #293536",
"-  c #3C3C33",
";  c #3B3D3B",
":  c #373736",
">  c #2E2C2E",
",  c #1A1920",
"<  c #4D2D1B",
"1  c #462D19",
"2  c #522E1B",
"3  c #552C18",
"4  c #473318",
"5  c #54311D",
"6  c #593718",
"7  c #4A2D05",
"8  c #6A351E",
"9  c #412E23",
"0  c #4A2D28",
"q  c #562A26",
"w  c #443224",
"e  c #4B3325",
"r  c #433329",
"t  c #4B3529",
"y  c #433A2D",
"u  c #4A392B",
"i  c #4D3827",
"p  c #543324",
"a  c #5A3524",
"s  c #553925",
"d  c #5C3926",
"f  c #533629",
"g  c #543A2D",
"h  c #5D3B2A",
"j  c #5A352C",
"k  c #423C33",
"l  c #473C36",
"z  c #593A34",
"x  c #532A35",
"c  c #633D2C",
"v  c #663C25",
"b  c #673834",
"n  c #6D3735",
"m  c #3B462E",
"M  c #374636",
"N  c #364D33",
"B  c #314200",
"V  c #534314",
"C  c #775315",
"Z  c #474328",
"A  c #5A422B",
"S  c #454539",
"D  c #584537",
"F  c #57503B",
"G  c #435025",
"H  c #64422D",
"J  c #684827",
"K  c #654333",
"L  c #6C4433",
"P  c #6E4936",
"I  c #6E4A3A",
"U  c #664839",
"Y  c #714636",
"T  c #744B3A",
"R  c #7B4E3E",
"E  c #714837",
"W  c #78533C",
"Q  c #70522A",
"!  c #6F6A32",
"~  c #476134",
"^  c #1A2843",
"/  c #12334F",
"(  c #273850",
")  c #133973",
"_  c #293961",
"`  c #4C3748",
"'  c #6A3A46",
"]  c #1D4657",
"[  c #3A4648",
"{  c #2A4657",
"}  c #345151",
"|  c #194669",
" . c #164877",
".. c #0F466F",
"X. c #2B4B6D",
"o. c #474A48",
"O. c #485646",
"+. c #585746",
"@. c #485856",
"#. c #535C5A",
"$. c #53494B",
"%. c #6B4A42",
"&. c #7E4F40",
"*. c #754747",
"=. c #695647",
"-. c #7D5141",
";. c #745346",
":. c #6E595A",
">. c #536553",
",. c #756858",
"<. c #6A6E54",
"1. c #505F66",
"2. c #586F6D",
"3. c #6A7666",
"4. c #757968",
"5. c #7D7E73",
"6. c #6A7071",
"7. c #6F5D6D",
"8. c #875103",
"9. c #81503E",
"0. c #845227",
"q. c #8E6F3A",
"w. c #8D6E14",
"e. c #835344",
"r. c #895347",
"t. c #865649",
"y. c #8B5549",
"u. c #8C594B",
"i. c #855949",
"p. c #925A4E",
"a. c #90574B",
"s. c #965C51",
"d. c #985E53",
"f. c #804F40",
"g. c #90734E",
"h. c #84796A",
"j. c #A27146",
"k. c #68816E",
"l. c #6A8676",
"z. c #768976",
"x. c #6C9379",
"c. c #74917B",
"v. c #778467",
"b. c #598578",
"n. c #85854F",
"m. c #8D8C74",
"M. c #88AD6A",
"N. c #0E3784",
"B. c #233D9C",
"V. c #174585",
"C. c #165191",
"Z. c #285290",
"A. c #366E8E",
"S. c #1650AC",
"D. c #245AAD",
"F. c #1561B2",
"G. c #296BB0",
"H. c #4C7094",
"J. c #6A7C91",
"K. c #4A70A8",
"L. c #5D5F8F",
"P. c #1854C6",
"I. c #1756D4",
"U. c #2954C9",
"Y. c #1A76D9",
"T. c #136BDC",
"R. c #2D72CA",
"E. c #2778D7",
"W. c #3171CF",
"Q. c #1855EA",
"!. c #0A57F2",
"~. c #0C59F5",
"^. c #095AFE",
"/. c #0658F6",
"(. c #145CF8",
"). c #0B56ED",
"_. c #2558ED",
"`. c #1765EC",
"'. c #0A7AE9",
"]. c #1B7DEC",
"[. c #177AEA",
"{. c #0769FD",
"}. c #1463FA",
"|. c #166BF8",
" X c #1673F4",
".X c #1D7CF2",
"XX c #1978F8",
"oX c #0E6CE8",
"OX c #2778E5",
"+X c #236AFC",
"@X c #277AFA",
"#X c #206DED",
"$X c #487DC1",
"%X c #3388BD",
"&X c #799B84",
"*X c #6E908E",
"=X c #7DA38E",
"-X c #5087B3",
";X c #5B92A1",
":X c #1791DD",
">X c #3A88CB",
",X c #2886DB",
"<X c #3785DC",
"1X c #2B8AD0",
"2X c #1A86E9",
"3X c #0886F9",
"4X c #1582F3",
"5X c #1D84F3",
"6X c #1D89F5",
"7X c #1C84FC",
"8X c #1D8BFC",
"9X c #1589FC",
"0X c #1998FD",
"qX c #1090F0",
"wX c #2384ED",
"eX c #2887E8",
"rX c #368AE9",
"tX c #2A96EA",
"yX c #3697EB",
"uX c #2285F3",
"iX c #2A83F4",
"pX c #238BF5",
"aX c #2B8CF3",
"sX c #2286FA",
"dX c #2B85FE",
"fX c #248CFA",
"gX c #2B8DFC",
"hX c #3489F8",
"jX c #2691F4",
"kX c #2A95F4",
"lX c #2D9AF4",
"zX c #2591F9",
"xX c #2799F9",
"cX c #309EF3",
"vX c #3695F6",
"bX c #08A6FC",
"nX c #2CA0F0",
"mX c #468BCF",
"MX c #469DE3",
"NX c #879987",
"BX c #95988E",
"VX c #86A48C",
"CX c #89A892",
"ZX c #95AB96",
"AX c #96B39C",
"SX c #8DB395",
"DX c #A4AB9B",
"FX c #97BAA3",
"GX c #8FBDA1",
"HX c #A3BCA4",
"JX c #A29F96",
"KX c #9AC3A8",
"LX c #9FC6B1",
"PX c #A5C6AC",
"IX c #AAD1B4",
"UX c #96C49D",
/* pixels */
"cXcXcXcXcXcXcXyXcXcXcXcXcXcXxXcXcXnXcXcXcXcXnXnXcXcXxXxXnXcXlXlXlXlXlXlXcXvXlXvXlXlXlXlXnXlXlXlXlXkXxXlXlXxXvXlXlXlXlXlX",
"cXcXcXcXcXcXcXcXlXcXxXcXcXcXcXcXcXxXnXcXnXnXcXcXlXlXlXlXcXlXlXlXlXlXlXcXlXlXlXlXlXlXlXlXlXlXlXlXlXlXvXkXxXvXvXxXlXlXlXlX",
"lXcXlXcXcXcXlXlXcXlXcXcXcXcXxXcXcXcXcXxXnXxXnXxXlXlXkXlXlXlXlXlXlXlXtXlXkXlXlXlXkXlXkXlXlXkXlXkXkXlXlXlXkXlXxXlXlXlXkXlX",
"lXlXtXcXkXtXlXlXlXkXlXlXxXxXcXlXlXxXnXxXxXxXxXxXlXxXkXlXlXkXxXxXkXkXkXkXkXlXlXlXlXkXxXkXkXlXkXlXxXlXkXkXgXkXkXlXkXlXkXkX",
"lXkXlXkXkXlXtXkXkXlXxXkXxXkXlXkXlXxXxXnX0XxXxXkXtXjXtXjXkXjXtXkXtXjXjXjXkXtXkXkXzXkXkXkXkXzXzXzXkXkXkXkXkXkXkXzXkXkXkXkX",
"kXkXkXkXkXkXkXlXkXzXkXzXkXkXxXkXkXxXlX0X0XtXkXyXjXjXjXjXjXjXjXjXpXjXjXtXkXjXjXkXxXzXzXzXzXkXzXjXjXkXkXjXkXkXkXkXzXkXgXjX",
"jXjXjXkXjXkXkXkXkXjXzXkXkXzXzXzXzXxXzXtXtXtX<XyXaXjXtXaXpXtXtXaX6XtXtXjXjXjXjXjXzXjXzXzXzXzXkXzXzXkXjXjXjXjXzXkXfXkXkXzX",
"kXjXkXjXjXjXjXaXjXjXkXkXzXzXjXjXzXzXzX0XtXtX<X<XaXtXjXaXjXjXaXaXtXpXpXpXtXjXjXjXjXjXzXjXzXkXjXjXpXfXjXaXjXjXfXfXkXfXzXzX",
"jXjXjXaXjXjXpXpXjXjXjXjXjXjXjXjXyX0XvXiXbX;Xv.>X5X,XxX4X9X8XMX*XnXK.J.xXtXsXbXrXfXjXpXjXjXjXjXjXkXjXfXkXzXzXfXjXjXpXjXjX",
"pXjXpXjXjXfXjXjXjXfXjXpXpXjXjXpXaX0XkXiXtXb.v.-X0X:X0X2XnXyX*Xz.G.1.+.>XyXdXbX<XjXjXjXjXpXpXjXpXfXfXfXfXpXjXjXfXfXjXpXjX",
"jXjXjXjXjXjXpXjXpXjXjXpXjXpXjXjXzX0XtXkX;Xn.n.mXeX1XMXmXmXH.<.n.h.g.w.;XrX@X2X1XpXjXjXfXjXjXjXjXjXfXpXjXjXpXpXjXjXjXjXaX",
"pXfXpXpXpXzXpXjXjXfXjXpXzXpXpXfXkXaX2X>X4.8.-.2.7.7.h.5.&Xi.q.m.q.q.w.L.iXrXgXtXfXpXjXpXpXfXpXjXfXjXpXfXpXjXpXjXfXpXjXpX",
"pXpXpXpXjX6XpXpXpXpXpXpXpXpXjXpXeXsXwX-X! 8.W 1.C 0.8.C =.! 8.! C w.Q A.,X:X.X3XpXjXpXpXpXjX6XpXpXpXpXjX6XpXpXpXpXpXpXpX",
"pXpXpXfXfXpXpXpXpXpXpXfX6XpXpXpX,X8X6X-Xk.q.g.*XH.*Xw.! A.3.! <.v.q.J.1XjXxXsX8XpXpX6XpXpXpXfXpXpXpXpXpXtXpXpXpXpXpX6XpX",
"pX6XpXpX6X6XpX6XpX6XpXpXpXpX6X6XgX8XeXE.mXz.<.K.3XmX,.6.[.mX7.J.K.! R.2XwX9X7XkXpX6XpXpXpXpXpX6XpX2XpXpX6XpXpXpX6XpXpXpX",
"6XfXpX6XpXfX6XfXpXpXpX6XfX6XfXpX8XbXtX@X9Xb.v.1X3XmXC 2.3XtXH.G.rX! Y.0XhX8XfX>X6XfXpX6X6XfX6XfXpXpXpXpX6X6XwX6XfX6X6XfX",
"uXpXuXuXpXuXpXuXpXuXpXuXpXuXuXpX9X6XfXdXeX%X%XOX3XmX! K.dX0XfXmXE.yXvXwXuXsX2X8XaXeXaXpXfX6X2X4XuXuXpX6XuXpXuXpXpXuXpXpX",
"pXuXpXuXpXpXuXuXuXpXuXpXuXuXpXuXiXfXsX5XsXgXaX,X3X$X! H.dX:XXX1X5XsX.XwXwX[.2X6X5XpXwXpX2X5X6X6XpXwXpXpXpXuXpXuXpXpXpXpX",
"pXpXpXsXpXpXsXuXpXsXpXsXpXpXuXpXOX@XpX2X4XXX.X1XY.H.~ Z.E.G.].tX9X8X8XfXaXwX2XjX7XfXzXfX5X2X6XpXuXpXuXpXuXpXuXpXuXpXfXpX",
"sXpXsXpX5XpXsXpXsXpXpXsX5XpXsXpXhX[.'.2XiXY.S...) ( X o X.{ C.S.Y.aXrXtXaXaX2X4X5X6X8XfXzXuXpXwXpXuXpXuXpXuXpXuXpXuXuXpX",
"sXuXpX6XpX5XsXpXuX7XpXsXsXpXsXpX3X9XzXfXG.| * * 0 q V A F I ` _ ..Z.Z.Z.R.eX6X9X2X]..X4X8X6XpXpXuXpXuXpXpXuXpXpXuXpXuXpX",
"pXsXpXsXpXuXpXsXpXpXsXpXpXsXsXuX3XxXvXD./ X 7 q 3 8 C Q Q 0.n ; @ @ * ( Z.G.E.zXrXiXaX5X7X6XgXaXpXuXpXuXuXpXuXpXpXuXuXuX",
"pXsXsXsXsXsXsXsXsXsXsXsXpXsXsX7X,XG.C./ > s v 8 A v n Q Q R T J A d < t ` { |  .W.,XhXgX6X5XwXkXpXuXpXuXpXuXuXwXpXpXuXuX",
"sXsXsXsXsXsXpXsXsXpXsXsXsXsXsX7XZ.) ^ > l ` x V +.*.*.:.=.%.J 6 q v v 6 6 u @ , N.S.OXkX7X4X2XhX6XpXuXpXuXpXuXpX6XuXuXuX",
"fXsXpXfXsXpXpXsXwXOXfX7XXX8XR. .+ 9 f f s v H P R R R e.R W R T d j s f e u l S Z * ) <XxX3XxX@XaXaXeXpXeXwX6X5XuXuXuXuX",
"sXpXpXuXsX5X5XuX7XaX2X2XdXY.V.{ 9 0 t g c L E P R 9.R -.-.R T T c c j f t y y k y % = ..<XvX].eXpXpXpXpXwXuX2X5XwXuXuXuX",
"5X5X5X5X].5X5X5X8XpX2XeXOXC.^ # w 0 f b *.W ;.E R 9.f.e.e.-.W R L K h g i r u y k   Z @ ) OXaXeXuX6X6X5X5XuXsX2XuXuXuXuX",
"uX5XsX5XuX5X5X5X8X[.sXOXC.] k 5 e f A *.-.e.-.W 9.f.r.r.i.e.-.W T E H j f e w w +   6 D ^ ) yX2X5X6X7X7X5X5XuXwX2X@XuXuX",
"fXpXsXfXsXsXsXpX2X8XdXW./ & h n i A I -.e.r.e.i.r.i.i.i.i.i.e.e.R Y L c s e w w   y O u M / C.zX].2X4X7X7X5XuXwXuX@XwXuX",
"fXfXfXpXfXpXsXpX2XvXOXN.> 7 3 ' s U ;.-.e.e.t.u.i.u.u.u.u.i.i.e.9.R Y c a e w 9 . - : : F M / W.OX].].4X4X4X5XwX].2X]..X",
"sXsXpXsXuXuXsXuX].R.Z.* i 6 5 D U P T -.e.r.i.u.y.a.u.p.u.u.i.i.9.R Y c j i e e w + ; - Z - o { E.E.[.[.4X4X.XuX.X@X.X.X",
"uXuX5X5X5X5X5X5X5XC.o . 3 n K G W T E R e.y.y.9.u.u.p.p.p.u.u.i.9.9.Y c j s i e 0 u X @ y u i , R.R.OX].4X4X@XuX.XwX.X.X",
"E.2X4X5XhXY.7XXXV.( . 4 s q d Q -.-.&.-.y.s.s.y.s.s.s.s.p.u.u.u.9.i.R J s f i w u u y % S S S o.& G.sX`.E.6XoX#X.XXX.XXX",
"eX4XuXuX5XuXwXF._ : . 2 g j b P -.-.-.t.t.y.a.s.s.d.s.p.u.u.y.y.i.i.R c h g i e u y r y % - o.M M X.E.].XX[.].[..X.X.X.X",
"aX XdXpX'.gXW./ l 1 < 3 x n n T E -.t.t.r.r.y.d.s.s.p.p.p.u.u.y.t.e.&.L h g g e r u $ $ $ - : - O.{ Z.iXXX|.sX'..XXX[.XX",
"2XXXhXpX'.@XZ., 9 < 3 3 n ' T Q &.-.t.t.r.y.a.s.s.p.p.p.u.y.y.a.r.i.&.L K K g e u w w & & > & % } S { ,X|.@X#X3X[. X X X",
"4X@X@XsX4XY.( 7 1 < e p j K J Q -.-.-.e.a.p.p.a.s.p.s.a.a.y.i.9.y.i.&.n P U D e w w # # & & & : [ F M F.+X+X X'. X X X X",
" XsX.XXXOXC.o 7 w e e h h H J J t.-.&.-.a.s.s.a.p.p.a.a.a.y.r.r.r.r.&.T T %.K t e w w # O & & $ S S [ | OX}.XX[.|.|.|. X",
" X2X'.}.E._ X 4 f e 4 A J d J P e.-.-.t.y.p.p.s.p.p.a.a.y.y.y.r.y.r.R T ;.;.K p 4 w # . # % - - S S O.{ G.`.{.`.|.|.|.|.",
"+XY.T.{.U.= V # d 2 5 H J 8 b *.*.-.t.y.t.y.a.d.p.a.a.a.y.9.9.y.y.r.&.T ;.;.U e 1 1 1 w # % k S F [ [ 1. . X{.+X|.oXoX|.",
"#XoXsX+X/ B 0 q < 5 a d v c P R f.f.r.y.y.y.a.r.a.y.y.y.a.r.r.r.r.e.R T t.;.T j t u u r   @ & & w S } L.} C.|.{.}.}.}.}.",
"|.oXXXI./ . 0 0 < 5 a d d c E -.f.f.r.y.y.y.a.r.y.a.y.a.r.r.r.r.r.e.R R -.-.I h t t e # +   & & S M } 2.} C.}.{.}.}.}.}.",
"|. XQ.V.M . q 1 < 5 5 5 d H ;.e.f.f.r.r.y.a.y.r.a.y.a.r.r.r.r.r.e.e.9.T ;.-.I h 0 e w w O # & % S : [ 1.@. .'.{.(.~.{.!.",
"{.oXI.* . x < 9 < 3 < 5 d L ;.i.f.f.r.r.a.y.y.y.a.y.r.a.r.r.r.r.9.i.R T T ;.I c w w 9 w O # $ k k : [ O.>...T.^.(.).).).",
"{.T.B.X 3 x < 1 2 < 2 5 c E -.e.*.f.r.r.y.y.a.r.t.y.y.t.r.r.r.f.i.i.9.Y Y ;.Y b e w 9 . # r y y # : o.O.N ] D.(.).!.!.!.",
"{.I._ X 3 0 1 1 2 2 5 a c E W -.f.r.r.r.y.a.r.y.y.y.y.y.r.r.f.r.9.i.9.Y L T P U t e 9 9 r r r r 1 ( $.O.[ [ Z.(.!.!.!.!.",
"{.P.> 7 x < 1 t < 2 5 h P T I P r.f.r.r.y.a.y.y.y.r.r.r.r.r.r.e.9.i.e.T P P P L g u 9 9 r r r 9 . : [ $.o.N | +X~.~.!.!.",
"(.S.X 6 `   1 t < 5 p c P T P b *.r.*.y.y.y.y.r.y.y.y.r.r.e.r.e.r.i.9.Y n U P U D u 0 9 r r 0 + 4 > : o.@.N ] _.~.~.~.~.",
"Q.^ . k 0 6   w 5 v a c n T R ;.R e.e.e.e.e.e.i.r.e.r.r.r.e.r.r.9.R &.&.T L H h g t O O # r r + k   y $.o.N } Z.+X(.).).",
"I.* . - e 3   e 5 a v c P E R &.R e.R e.e.e.e.e.e.e.e.e.e.e.r.r.9.R R T P K H h g t 9 O # r r 9 $ + y $.M N } Z.(.(.).).",
"S.* 4 & < 3   f 5 a c c L Y &.&.e.e.-.e.e.e.i.e.f.e.e.e.e.t.e.e.r.-.T E H h h d g t 1 O # r r 9 $ # l o.[ N @._ (.(././.",
"B.+ 7 & < 3 1 f a a c c L Y T R R 9.9.e.e.e.9.i.e.f.&.f.e.&.e.e.e.-.T H c d s s g t w # # r 9 # + k l ( M o.1.X.Q.!././.",
"_ 9 < O < 3 0 f d d c c L Y Y R 9.R 9.e.9.9.i.e.R &.f.&.e.&.-.&.e.-.E H d s p s g t O O $ 9 0 + # l l M % [ 1.} I.)././.",
"/ < 3 9 7 3 0 p d d c c L Y Y T R e.R R -.i.9.e.R R &.&.&.-.&.-.-.W T P c h s s g t 9 O r $ r 9 . l ; - : [ #.N S.I././.",
"o p q + < q x 6 d h c c L Y Y T 9.-.e.e.9.e.e.e.R R R R &.&.-.R R I I P K A d s g t w O # r r 9 . ` : - M [ #.N S.P.~.^.",
"o d q + 7 q 0 6 v c c H n Y E E 9.R W 9.e.W i.-.R R T R ;.R R &.T T I T P H A A g t 9 O O r 9 9 4 o.: M - [ #.G C.P.~.{.",
"t + t l $.u S u A F g g H A I U U ;.t.*.n T :.:.:.:.,.%.z ;.=.h +.D A F U F D ,.4.,.<.6.6.$.: l o.; ; o.O.@.@.} X.G.Q.}.",
"$ k :.5.NXv.4.3.m.4.F F ,.h.m.m.v.h.,.=.:.m.JXBXNXBXZX5.+.+.:.m.4.4.4.<.>.O.4.DXHXDXZXZXCXl.>.#.3.1.>.#.@.2.l.6.H.U.Q.(.",
"#.>.&XNXSXVX=XVXCXc.3.l.NXZXAXZXAXZXm.c.m.AXPXAXPXHXPXHXNXk.v.CXFXHXFXCXc.3.l.AXPXPXFXFXGX=Xx.k.CXNXNX5.3.k.&Xl.=X-XU.U.",
"k.z.CXCXSXc.VXSXx.l.&XAXAXCXAXKXIXSXSXPXSXSXGXKXUXSXPXIXLXZX&XNXLXLXLXFXGX&X*X&XCXKXKXGXKXGX=X&X&XNXAX&Xl.&X&Xl.M.x.2.A."
};
