/* XPM */
static char *f40c7db48d184deb9f5b7e920a0cf7e0keUOWPPxsxFrLFvj[] = {
/* columns rows colors chars-per-pixel */
"60 60 256 2 ",
"   c #140000",
".  c #1B0100",
"X  c #170906",
"o  c #051800",
"O  c #1A1803",
"+  c #0B0403",
"@  c #240100",
"#  c #2A0902",
"$  c #370903",
"%  c #281507",
"&  c #381604",
"*  c #371A14",
"=  c #2B1814",
"-  c #062600",
";  c #182A07",
":  c #163705",
">  c #143912",
",  c #392206",
"<  c #273A02",
"1  c #363805",
"2  c #3A2517",
"3  c #2F2C10",
"4  c #33342A",
"5  c #480902",
"6  c #461705",
"7  c #481819",
"8  c #591816",
"9  c #520D0A",
"0  c #671815",
"q  c #721114",
"w  c #472608",
"e  c #562518",
"r  c #4F2F15",
"t  c #672917",
"y  c #702B14",
"u  c #541A24",
"i  c #4A2727",
"p  c #5A2826",
"a  c #5A372B",
"s  c #653827",
"d  c #6F3231",
"f  c #771629",
"g  c #1A4D0F",
"h  c #314F12",
"j  c #295828",
"k  c #35542B",
"l  c #356B2F",
"z  c #235C23",
"x  c #4F5010",
"c  c #524E2C",
"v  c #714C33",
"b  c #576926",
"n  c #4C7034",
"m  c #6A6C31",
"M  c #754E1B",
"N  c #6E3A45",
"B  c #355D41",
"V  c #714F46",
"C  c #4D744B",
"Z  c #70704D",
"A  c #584342",
"S  c #8E322E",
"D  c #8E2321",
"F  c #984E1A",
"G  c #AE571B",
"H  c #985928",
"J  c #865938",
"K  c #8C512B",
"L  c #AB5726",
"P  c #AC5435",
"I  c #9A6738",
"U  c #926F35",
"Y  c #A96629",
"T  c #B76829",
"R  c #A86B37",
"E  c #A87637",
"W  c #B87A38",
"Q  c #B26B32",
"!  c #C57937",
"~  c #C96C2A",
"^  c #C5611C",
"/  c #AE3746",
"(  c #8F554A",
")  c #AA5450",
"_  c #856947",
"`  c #987A53",
"'  c #916D4E",
"]  c #B17250",
"[  c #936E6A",
"{  c #B0746D",
"}  c #A95E63",
"|  c #C5724A",
" . c #CC7069",
".. c #E57765",
"X. c #58843B",
"o. c #6C8039",
"O. c #3D8341",
"+. c #548D51",
"@. c #6B9054",
"#. c #6AA45B",
"$. c #709269",
"%. c #71AB6A",
"&. c #539469",
"*. c #908339",
"=. c #B98739",
"-. c #B78935",
";. c #C5853C",
":. c #C4923D",
">. c #918851",
",. c #B98448",
"<. c #AA8856",
"1. c #B68855",
"2. c #BA9559",
"3. c #A99350",
"4. c #B1A359",
"5. c #938D6F",
"6. c #AD926E",
"7. c #B9A473",
"8. c #86B273",
"9. c #C78946",
"0. c #CB9647",
"q. c #D5994A",
"w. c #C99856",
"e. c #D08F53",
"r. c #E69455",
"t. c #D4A44D",
"y. c #CCA558",
"u. c #D8A857",
"i. c #D8B45B",
"p. c #CEA249",
"a. c #E3A95A",
"s. c #E5B659",
"d. c #CA946E",
"f. c #F19B6A",
"g. c #CAA865",
"h. c #D7AC64",
"j. c #D9B767",
"k. c #C7A974",
"l. c #D8B975",
"z. c #CDB376",
"x. c #E5AB64",
"c. c #E7BA69",
"v. c #E5BA73",
"b. c #F1B26D",
"n. c #DBC569",
"m. c #DBC478",
"M. c #DED779",
"N. c #E5C46A",
"B. c #E6C777",
"V. c #E7D77A",
"C. c #F2C678",
"Z. c #E8E07B",
"A. c #B37D85",
"S. c #8D7A85",
"D. c #F17E85",
"F. c #7CA58F",
"G. c #6DB3DA",
"H. c #78B6E2",
"J. c #75ADE0",
"K. c #5BACD9",
"L. c #7EC3E4",
"P. c #B09489",
"I. c #8EB092",
"U. c #B7A788",
"Y. c #B7A994",
"T. c #B1A990",
"R. c #B2B1AB",
"E. c #979F96",
"W. c #D19291",
"Q. c #C8A98B",
"!. c #CAB697",
"~. c #D4B28E",
"^. c #F2B38F",
"/. c #CABAA6",
"(. c #D8B8B4",
"). c #D0B1AD",
"_. c #E8B4AF",
"`. c #E19497",
"'. c #B3C9B7",
"]. c #90C6A2",
"[. c #D9C790",
"{. c #E9C986",
"}. c #E7D586",
"|. c #EECC8E",
" X c #D8C8B5",
".X c #D3C8B1",
"XX c #E6CABA",
"oX c #EDCEAF",
"OX c #89B7DC",
"+X c #97BCD9",
"@X c #91B5D4",
"#X c #ACB8CD",
"$X c #8BBCEA",
"%X c #87BCE5",
"&X c #96BDE8",
"*X c #83BFF5",
"=X c #BCBCEC",
"-X c #DEBEC8",
";X c #9AC5DA",
":X c #8EC2D6",
">X c #A7C8DB",
",X c #B7CAD8",
"<X c #B8D6D9",
"1X c #B1CFCE",
"2X c #B8E9D8",
"3X c #8CC3EB",
"4X c #89C3E6",
"5X c #93C3EB",
"6X c #9CC5EB",
"7X c #9BCBEC",
"8X c #97C7E6",
"9X c #9DCAF2",
"0X c #9CD1F2",
"qX c #91CEF0",
"wX c #ABCBE4",
"eX c #A4CBEC",
"rX c #ABCCEB",
"tX c #A5C7E8",
"yX c #B2CDEB",
"uX c #B6CCE6",
"iX c #A9D2EB",
"pX c #B5D3EC",
"aX c #BCD4EC",
"sX c #BAD7E6",
"dX c #A9CEF1",
"fX c #B6CDF4",
"gX c #A9D5F3",
"hX c #BBD4F2",
"jX c #B7D7F5",
"kX c #BAE1F8",
"lX c #BEE3E3",
"zX c #D6CAC6",
"xX c #D7D6CB",
"cX c #C6C9D8",
"vX c #C7D6DA",
"bX c #D7D8D7",
"nX c #CACCCB",
"mX c #E7D7C8",
"MX c #E5DBD7",
"NX c #F0CFCE",
"BX c #C5E2DB",
"VX c #D9E1D8",
"CX c #EAE2DA",
"ZX c #F5E5D5",
"AX c #C3D4E4",
"SX c #C3D6EC",
"DX c #C9DAE7",
"FX c #D8DAE7",
"GX c #C5D7F5",
"HX c #D4D9F3",
"JX c #C3CCEE",
"KX c #C6E3E6",
"LX c #D4E3EC",
"PX c #E9E4E6",
"IX c #F2E8E7",
"UX c #E5DAE5",
/* pixels */
"$X$X$X&X&XOXOXOX$X%X%X4X3X%X8XtXiXgXkXgXwX;X;X+X;X#XtXfXGXGXGXfXLXbXFXvX<X,XsXSXLXhXsXuXwXiXiX6X+XOXOX+X3X4XL.L.H.H.H.G.",
"$X%X$X&X&X&XOXOX$X$X4X%X%X8XtXrXtXkXkXkXkXuX>X>X,X>X1XvXuXcXAXJXxXbXbXbXvXDXDXKXsXDXsXsXjXjXwXiX8X4X4X3X3X4XH.4XH.H.H.H.",
"$X$X&X&X=X&XOXOX*X3X3X%X&X6XwXwXfXhXjXGXDXAX,XR.E.5.E.E.5.5.6.6.5.5.T.Y.'.nXbXvXPXvX<X<XpXiXiX7X&X8X8X5X3X4X3X4XH.H.H.H.",
"$X$X&X&X&X&X$X$X$X3X3X$X%X8XtXtXuXJXHXLXcXnXT.Z 5.>.>.4.z.m.m.[.[.~.!.Q.6.U.Y..XxXbXbXAXsXjXgX8X8X7X0X8XqXqX4X4XH.H.$XH.",
"&X6X&X&X&X&X9X&X3X3X5X3X6X+XtXuXcXUXUX-XP.V m 6.z.g.c.N.n.N.N.s.c.v.j.l.{.~.6.<.6..XxXnXKXkXiX0X7X0X0X8XqXqX3X%X%X%X4X3X",
"6XtX=XtX=X&X=X9X9XqXqX9X8X&XwXcXzX(.6.V v ` 6.w.j.c.C.N.s.s.s.s.N.N.v.v.l.v.B.~.7.>.Y.xXvXlXkX0XgXiX7X7X6X7X3X4X5X3X3X3X",
"6XtXrXtXtXtX9X9X9X9X0XdXtX>X>XcXY.I M ' <.d.h.v.v.c.c.c.s.s.s.N.N.s.s.s.s.c.N.v.z.k.6.T.VXBX>XKXgXiX7XeXiX8X8X8X0XqX9X5X",
"tXwXtXrX=XtX=X6XeXdXgXrXuX,X#XR.s Y R 9.j.v.b.v.C.c.a.c.b.C.C.C.C.N.N.N.s.i.a.a.h.h.k.6.T.xXLX<XkXiXiXiXeX7X7X0XeX9X9X6X",
"wXrXrXyXyXyXyXrXtXyXpXpXJXcXR.[ K Y W e.u.c.b.c.b.v.l.m.B.{.{.~.{.B.n.i.s.s.s.s.a.x.w.6.Z T.VXvX<XiXsXgXwXiXiX0XgXgX7X8X",
";XwXyXpXpXhXfXyXuXhXAX,XFXE.[ V H T ;.q.a.x.c.c.c.j.n.n.{.}.}.V.M.M.N.n.N.N.s.a.a.u.y.w.6.' [. XvX<XsXsXwXiXgXgXgXdXeX6X",
"+XwXpXhXhXaXJXSXaXAXvXvX/.Z v ( E ;.e.r.a.x.c.i.j.i.n.n.M.Z.}.M.M.}.}.V.V.j.u.u.s.0.u.w.2.` ` .XVXDX<XsXsXjXjXhXgXdXeX6X",
"@X;XrXpXaXSXGXSXDXcXbXzX[ ( J I ] e.e.a.x.x.c.u.i.n.n.n.M.M.Z.M.}.}.}.m.n.i.i.i.s.q.q.q.,.9.J 7.xXBXvX<XsXsXjXgXgXrXeXtX",
":X8XtXiXpXSXSXDXFXcXMXY.d J P Y W 9.e.u.a.s.c.u.i.i.n.n.M.Z.Z.V.}.}.V.B.j.j.h.b.a.a.q.9.9.;.W U .XvXvX<XKXDXaXpXyXdXeXtX",
"7X8XeXwXpXGXGXFXFXCXmX( K H L L ~ :.0.w.u.i.i.i.i.i.n.N.V.V.V.V.|.}.}.B.m.g.h.v.u.q.q.;.:.W W H 5.xXVXnXvXAXaXpXpXrXrXeX",
"8X7XiXwXuXSXDXFXbXPX!.v ] F G T ;.:.:.t.u.u.u.i.i.j.B.C.|.|.|.|.|.}.B.{.m.g.h.j.u.q.q.9.! ! Y R ' nXbXvXKXAXAXpXrXrXeXeX",
"8XwXiXwXwXuXAXDXbXMX6.J | L G ~ -.-.:.t.t.t.i.i.j.N.C.{.|.|.|.|.{.V.}.B.m.h.y.x.w.a.9.! ;.T Y R m /.bXbXFXsXaXpXrXrXeXeX",
";X;X>XwXuXJXHXDXbXXX' I H L L ] -.:.:.:.p.t.s.i.n.N.C.N.V.{.}.}.}.}.}.m.v.j.h.u.e.e.0.9.;.W T Y K <.mXbXSXgXjXrXrXdXdX7X",
";X>XuX>XuXhXSXDXUX/.J H H L Q Q ! ;.0.0.:.a.s.i.s.N.N.N.N.B.B.V.}.}.M.l.v.x.a.a.u.u.0.9.=.W T T F ' XXbXSXjXjXgXgXdX8X+X",
":X:XiXiXrXhXhXDXbXY.J R F G L ~ ! ;.:.q.:.a.s.c.c.b.N.N.c.C.C.{.|.C.C.b.x.a.r.a.u.t.9.=.W W Y Y Y K !.bXaXgXeXgXgX7X4XOX",
"L.qX0X0XgXyXpXDXbX6.I Q G G ~ ! ~ ;.;.q.r.a.b.b.c.N.b.N.c.C.C.|.|.C.b.x.r.r.r.q.u.0.=.-.-.-.Y Y Q y W.mXAXGXgXjX8X8X8X4X",
"L.qXqX0XdXiXpXvXbX[ H Q ^ ~ ~ ~ ! ;.;.q.q.a.s.s.c.N.v.N.B.B.{.V.B.N.c.a.a.r.q.t.q.0.,.-.-.E E Y T F A.NXcXJXjX;X:X;X0XqX",
"*XqXqXqXiXiXsXDXzX' R Q ^ ^ ^ ~ ! ;.;.:.:.q.t.i.s.c.N.N.c.N.N.B.n.n.s.i.t.t.t.p.0.0.=.=.-.E Y L P H } NXbX,X>X+X>XiXiX0X",
"H.3XqX0XwX<X1XnX/.` E T ~ ^ ~ ! ! ;.:.;.q.p.t.t.i.j.c.n.n.j.l.n.i.n.i.t.t.p.p.0.:.;.;.;.W Q T L L H ( .XxX1X1X<X<XsXlXgX",
"3X%X8XtX>X1X'.'.R._ I Y ~ ~ ~ ! ;.;.0.q.q.q.t.t.i.s.c.N.v.v.B.j.n.n.n.i.i.p.0.0.=.;.;.! T T L G F I U P.R.1X'.'.1X<XkXlX",
"9X9XwX>XI.C 4 > C Z U U -.W W ! ! q.9.q.q.0.q.t.a.a.c.c.b.x.h.x.h.i.u.u.h.u.q.0.e.9.9.;.Q L L F H *.m 1 ; C C B F.vXDXvX",
"6XgXiXF.B C B > : x M U U E 3.*.,.9.9.0.e.t.u.0.u.h.a.c.h.g.v.h.l.y.h.j.h.h.j.i.u.u.e.,.R ] H H F x b l l l C C I.vX<XuX",
"jX>X<XF.C &.&.C z h h h x x 1 m U U U *.U *.-.4.3.4.4.3.4.3.6.3.2.y.4.3.4.4.>.*.U *.m M x b x x x x h g l &.F.> ].BXlXsX",
"7X>X2XF.C O.+.O.#.X.x x g h b m h : 1 < g x x h x m b h h b x 1 c m b x m b h g b n < g b Z +.b b o.8.@.&.&.z ].2X2XsXsX",
"jXkX2XF.z l O.O.#.+.l g h @.%.n l h z O.X.#.X.g X.z n l h +.@.b c k : g g g h n X.#.$.n C +.@.n b >.@.I.].&.].2X2X<X>XwX",
"jXiXKX2X].&.&.%.&.l z g @.%.n l g z l X.+.+.n z 8.n n n k k n n > g : g g z +.+.n b b x m m h 1 r a c k z F.2X:X<X>X;X7X",
"jXGXsX1X'.&.%.%.l g - C @.h j k l k l +.+.j j n @.@.C 3 ; ; + + o > g z z C +.m x & $ $ 8 t 5 8 9 p 2 E.'.2X2X2X<XtXeX9X",
"fXGXkXlX%.l O.z j : o m Z h ; ; k 1 O h c c c r 3 , c r 3 2 o 3 > - j C C @.5.c $ s q y D q q f d S d zXxX'.2X1XwXtX6X5X",
"=XGXGX<X].&.C I.T.# p t s v , , 6 0 y 0 y y f 7 9 0 5 9 t w w 1 k j > Z 5.Z m w 0 y D D D / / D / q ( -X-XcX<XiX8XqXqX;X",
"JXfX>XsX2X1X1XnXP.7 0 9 5 8 r y q D D P S D f f 5 9 q f 0 y t , 3 3 ; k c w $ 0 y S S  ... ./ D q f A.-XNXFXsXiXiX0XqXiX",
"gXgXkXKXJXnXnXcX.XP.[ V 8 8 8 0 q q q / ) } A.).} ( 8 8 8 5 9 5 5 & $ 6 6 9 t t q S D ) ) / / ) W.`.).(.nXcXvXJXhXjXlXiX",
"gXkXpXSXJXR.P.).(.zX).(.W.W.W.W.W.W.`.`._._._.W.).XX_.{ { ( v s r w , r w r x % t M v 6.W.)._.(.)._.zXmXzXcXFXFXHXGXGXjX",
"kXkXsXAXFXzXR.W.).(.).(._._._.NXZXUXNXNXNXNXXX X(./.Q.6.Z Z $.C +.m #.#.X.@.X.>.8.Z Z 5.R..X XXXZXoXXXXXzXR.FXPXFXHXHXHX",
"gXkXGXvXzXMXzXW.A.W.W.`.(._._._. XzXmXmXoXoX!.Q.6.' v c v $.$.@.%.#.#.%.#.#.%.%.@.h Z 5.!..XXXoXmXXX.X.X/.(.IXPXUXHXHXHX",
"lX<XBXxXxXNXXX6.[ ( } ` { W.W.W.!.!.~.k.d.d.e.] w.] d.6 % m > j l z z l l n #.Z , & v ( {  .`.`.`.~.Q.P.P.R.CXbXLXLXHXHX",
"sXlXvXMXNXW.{ { ( t $ & 6 v } d.1.{ e. .r.f.r.f.f.f.h.^.` x c ; g - - : - o o , r s S P )  . .| W.^.^.d.U.U.mXbXPXLXLXLX",
"2X2XcXNXW.{ { y $ # # & & 8 ) | f.f...r.r.f.f.b.r.a.e.e.1.` r % O o o o o - ; O ; , , 6 t v ) ] d.d._.oX_.Q.).bXbXFXFXAX",
"qX1XPXY.A. .d 9 @ & , & & # 9 F G r.f...r.r.a.9.0.] ] I ' v X % % = % O O ; = = % O # % # @ # 6 d I ) d.^.NX(.(.MXbXDXDX",
"lXlXcXE.A.A.A.8 & 7 * & r 5 5 9 y F f.^.r.x.a.w.,.U K M $ . % 3 * 9 u 7 7 * X # & 7 % # & # w & @ & v ( } `.NX-XMXcXAXJX",
"jXpXHXcX#XzXY.X 7 d V a d d d 5 6 y F x.b.f.e.| H y 5 @ # , = = u u u u 7 p N 7 $ 6 d p s ( e c * & @ 6 ( d { A.-XcX=X>X",
"GXJXGXuXiXKXR.X = p S d p V a i & 6 y S | e.] y 5 9 q q ( p * i 7 p p d N A.NX`.f 7 N N ( ( p v A = = . N P.A S.=X#X+X@X",
"=XJXtXhX2X1X2X4 # i u 7 7 p 2 2 & @ 6 d } f $ t t d S f ( 7 V A s s a s p ( W.[ N u 9 u p # # # = = = X S.-XR.R.#X@XOXJ.",
"fXrXfXGX1X1XvXF.+ = 7 $ & p i 2 2 p . 7 @ . * 2 i a v 5 d 8 7 7 r w r 7 # $ 7 @ 7 7 7 u i i * i X X + = -XcX@X;X:XL.G.G.",
"dXpXpXiXsXKX1XvXS.= % # . . @ # * * a % * 4 4 = 3 = # 7 7 8 p * w & w & $ $ = i u u 7 @ X   + + = A A S.bX#X<X:XH.G.K.K.",
"fXyXjXhXaXsXDXVX XZ ` 6.J Z ( 6               + + % X X X   X i = * & * = . . .   .   # r v _ 5.d.] _ P.zXDXaXiX$XH.J.K.",
"uXpXhXhXhXSXvXVX.X>.3.<.,.d.l.~.Q.U.5._ ' 5.[ _ v , a v a Z V +   .   . = 7 a V ` ~.(.~.Q.7.7.2.R I J 6.MXcXsXeX9X$XH.J.",
",XsXSXSXDXDXVXCX!._ 1.=.] 9.] d.d.[.|.|.|.oXoX|.[._.oX[.XXZXXXQ.U.U.Q.Q.~.~.!.~.Q.~.Q.d.<.E I I I R J 6.CXbXSXjXdXeX5X$X",
",XvXAXDXHXFXbXCX[.v <.,.:.9.! | 1.w.k.g.g.4.y.4.g.l.l.[.|.|.|.|.z.z.k.k.7.6.<.1.<.1.] <.2.,.,.W I R v U.MXFXDXuXrXeXeXtX",
"cX<XSXDXDXFXFXMX!._ ] 9.;.! 0.9.w.w.y.y.u.i.i.j.u.y.y.j.v.l.j.h.m.n.m.l.g.h.y.g.w.w.1.e.9.9.W E ,.' v !.zXbXDXsXyXwX>X6X",
"sXvXSXGXGXHXFXMXzX6.I E ,.,.0.9.-.p.h.u.y.y.i.y.i.n.i.i.N.j.j.B.N.n.B.n.j.j.y.g.h.w.9.9.9.W ,.] ] ( _ (.zXbXDXDXaXyX+X#X",
"AXsXGXGXGXGXJXvXbXzXY.6.` U ` ,.g.h.h.g.j.j.j.i.i.y.j.N.j.B.B.m.V.V.V.j.g.j.h.l.l.h.g.w.2.2.<.U J Z 5.zXbXAXsXuXSXuX=X>X",
"SXsXjXGXjXjXhXJXcXvXzX XXX.XU.4.<.<.<.g.g.j.z.j.l.z.j.l.m.l.l.M.}.}.}.m.l.l.z.z.~.6.<.6.` _ ` <.P.Y.zXnX#X,XsXuXpXfXyXfX",
"sXSXaXhXfXfXfXfXfXcXAXcXbXxXVXmX.X[.Q.6.<.5.3.6.4.6.7.z.k.Q.[.[.[.[.z.7.7.6.7.7.U.U.U.T.Y..X'.'.1X1X#X,X>XwXtXeXeXdXfXrX",
"sXsXpXpXyXrXdXdXyXfXSXDXvXDXBXVXxXmXZXZXZXXX.X/.!.U.U.T.U.U.U.T.[..X/.[.!..X.X XxXVXxXnX1X2X1X1X#X,X#X#X6XtXeXeXtXtXtXtX",
",X,X,X>XwXwXrXyXyXfXJXSXDXKXDXvXUXUXUXPXPXCXCXMXCXxXVXxXxXxXxXMXCXZXIXZXCXCXPXIXbXvX<X<X1X;X;X;X;X+X&X&X5X9X5X7X6X6X6X6X",
"#X,X,X,X>X>XtXyXfXjXGXGXGXDXKXDXFXFXFXUXFXUXbXbXbXxXxXVXbXbXvXVXUXMXPXCXUXMXbXFXLXLXsXiXiXiX7X8XOX+XOXOX$X$X3X5X&X&X&X&X"
};
