/* XPM */
static char *f8e51e94af9a4aa3c5672c018b09b7516wEQFBvRBciV719v[] = {
/* columns rows colors chars-per-pixel */
"60 60 256 2 ",
"   c #003100",
".  c #242715",
"X  c #6E1509",
"o  c #76330D",
"O  c #672221",
"+  c #134C05",
"@  c #185505",
"#  c #0A4C05",
"$  c #2C570B",
"%  c #166812",
"&  c #296304",
"*  c #356C10",
"=  c #397124",
"-  c #4B710F",
";  c #46792A",
":  c #645619",
">  c #33576B",
",  c #556755",
"<  c #586F5B",
"1  c #6C7556",
"2  c #5E7569",
"3  c #546E6C",
"4  c #64796B",
"5  c #697F74",
"6  c #6A505E",
"7  c #1F2251",
"8  c #900700",
"9  c #B11308",
"0  c #8D3110",
"q  c #AA2801",
"w  c #B4310C",
"e  c #8F322D",
"r  c #AF382A",
"t  c #B11F22",
"y  c #CC3511",
"u  c #CF3629",
"i  c #E0301B",
"p  c #AE5011",
"a  c #956E0A",
"s  c #BB670D",
"d  c #904C30",
"f  c #AE5030",
"g  c #92732D",
"h  c #B26C2F",
"j  c #94460E",
"k  c #D04C10",
"l  c #E35819",
"z  c #E44810",
"x  c #CC6D0F",
"c  c #E97511",
"v  c #D95B28",
"b  c #D14C2C",
"n  c #EC5031",
"m  c #D0782E",
"M  c #F0712A",
"N  c #963B45",
"B  c #8F524F",
"V  c #92734D",
"C  c #B26B44",
"Z  c #8C5D6E",
"A  c #90706F",
"S  c #AD6B6D",
"D  c #AB5056",
"F  c #D1544B",
"G  c #F27544",
"H  c #E06558",
"J  c #3D8820",
"K  c #568614",
"L  c #538C0E",
"P  c #699517",
"I  c #548A2E",
"U  c #6B9630",
"Y  c #75A731",
"T  c #63A213",
"R  c #559049",
"E  c #6C8D53",
"W  c #74AA54",
"Q  c #6A846B",
"!  c #688677",
"~  c #778C7B",
"^  c #74957A",
"/  c #71906E",
"(  c #74AA6B",
")  c #AF9D28",
"_  c #D28B12",
"`  c #EA8A19",
"'  c #DA872A",
"]  c #D48F31",
"[  c #F2932F",
"{  c #D7B22E",
"}  c #FCA738",
"|  c #FCB839",
" . c #EEAB2D",
".. c #DAB21A",
"X. c #FAC433",
"o. c #929554",
"O. c #B38C55",
"+. c #88B255",
"@. c #8F916E",
"#. c #AE926E",
"$. c #89B871",
"%. c #ADAC53",
"&. c #CF904D",
"*. c #F89946",
"=. c #F18E4B",
"-. c #FBB646",
";. c #FDA658",
":. c #F1B04E",
">. c #CD9372",
",. c #D3AE71",
"<. c #ECB56A",
"1. c #E4A358",
"2. c #93C96F",
"3. c #A9D479",
"4. c #AADB64",
"5. c #F6C954",
"6. c #FCC96D",
"7. c #D7C06D",
"8. c #557787",
"9. c #6C7088",
"0. c #6678B3",
"q. c #4F66B3",
"w. c #6277C5",
"e. c #3D5B91",
"r. c #897CB0",
"t. c #9C7490",
"y. c #5C8A8D",
"u. c #768D81",
"i. c #748A8B",
"p. c #769889",
"a. c #779794",
"s. c #688D8B",
"d. c #78A185",
"f. c #6D8CAE",
"g. c #7BD2BC",
"h. c #76D1BF",
"j. c #7ECEB9",
"k. c #768FD0",
"l. c #75A2D7",
"z. c #6AA4EA",
"x. c #7ED6C9",
"c. c #7EC4F7",
"v. c #8A9490",
"b. c #B19692",
"n. c #9DAA94",
"m. c #94AF8A",
"M. c #A9AD98",
"N. c #928DB1",
"B. c #AC8CAB",
"V. c #9CAEAB",
"C. c #ACBAAA",
"Z. c #A8B7A7",
"A. c #B4BCA9",
"S. c #A1AFA0",
"D. c #D0B28A",
"F. c #CFAEAD",
"G. c #DCA9A5",
"H. c #97CC8E",
"J. c #A9D792",
"K. c #B4E893",
"L. c #9BCEA8",
"P. c #9BD3AC",
"I. c #9CDBAE",
"U. c #94D7AD",
"Y. c #88CEB5",
"T. c #8CD5B2",
"R. c #87D6B8",
"E. c #94D4B4",
"W. c #94DAB2",
"Q. c #9CDBB4",
"!. c #94DEBB",
"~. c #9BD6B7",
"^. c #90D1B2",
"/. c #AAC9A7",
"(. c #B3CCA9",
"). c #BCCCAA",
"_. c #B8C5A8",
"`. c #A4D4AC",
"'. c #ACD5AD",
"]. c #A4DCAC",
"[. c #ACDBAC",
"{. c #ABDDA5",
"}. c #B4D3AC",
"|. c #BCD3AC",
" X c #B3DBAD",
".X c #B8DAAA",
"XX c #A5DBB8",
"oX c #BCDAB3",
"OX c #B8D9B6",
"+X c #B6C9B5",
"@X c #9BE1BA",
"#X c #9FE2AF",
"$X c #A9E3AA",
"%X c #B6E6A9",
"&X c #A9E4B7",
"*X c #B7E6B8",
"=X c #BAF4AE",
"-X c #CECA93",
";X c #C4CBA7",
":X c #C4D3AA",
">X c #CAD6A8",
",X c #D6DBA8",
"<X c #C3DCB4",
"1X c #CBDDB4",
"2X c #C7DAB9",
"3X c #D6DBB5",
"4X c #CBCAB4",
"5X c #EED6B0",
"6X c #C5EAAC",
"7X c #DAE2AC",
"8X c #C8E4B8",
"9X c #D8E5B9",
"0X c #C7F4B6",
"qX c #D0FAAE",
"wX c #E3E6AC",
"eX c #E5E8B5",
"rX c #F2F2B9",
"tX c #D9E393",
"yX c #8E93D0",
"uX c #94ADD4",
"iX c #AAAED0",
"pX c #90AFED",
"aX c #A9B6ED",
"sX c #A392CF",
"dX c #CDB7C8",
"fX c #8BDDC4",
"gX c #83DAC4",
"hX c #90DBC4",
"jX c #A8D7C7",
"kX c #B7D9C9",
"lX c #B2D7D1",
"zX c #99E3C5",
"xX c #B6E3C3",
"cX c #AAEBC2",
"vX c #AFC8F3",
"bX c #96CDE7",
"nX c #C5DAC3",
"mX c #CED1D3",
"MX c #EED8D1",
"NX c #C8E5C5",
"BX c #D7E7C7",
"VX c #C9EAD4",
"CX c #D6EBD5",
"ZX c #D9F8D5",
"AX c #D0F6C7",
"SX c #E6EAC7",
"DX c #F5E9CB",
"FX c #E5F4C9",
"GX c #E8EDD3",
"HX c #E7F4D8",
"JX c #FCF9D9",
"KX c #FAF2D2",
"LX c #D6EFEC",
"PX c #F9F9E6",
"IX c #F0F0EF",
"UX c #CDD6E8",
/* pixels */
"h.h.g.g.g.g.R.g.j.T.T.T.T.W.W.W.g.g.K.g.Q.@X#X@XQ.&X].].I.].*X&XcX~.].Q.&X$XU.U.W.@XzXR.R.!.R.R.fXfXfXfXfXfXgXgXx.x.x.x.",
"h.h.h.g.g.g.g.R.j.T.T.T.T.T.U.W.#XU.#X#X!.#X@XQ.Q.&X&XcX$X&XL.R &X&XI.*X&X&X#XW.@X@X!.zXzXzX!.!.fXfXfXfXfXfXfXgXx.x.x.x.",
"h.g.g.h.j.g.R.R.j.T.T.T.W.W.W.W.#Xg.U.#XQ.@X#X&XXX&X$X&X&X$XR # U.&X$XcXH.#X&X#XcXzX!.fXzXzX@X@XfXfXfXfXfXfXgXfXx.x.gXx.",
"h.g.g.g.g.j.R.j.R.T.T.T.W.W.W.W.#X#XU.#X#X#X&X&X&X&X=X{.%XXX; $ m.&X$XU.( #X=X#X&XcXcX!.R.@X@XT.zX!.fXfXfXfXgXfXR.x.R.x.",
"j.j.j.j.g.j.R.R.T.T.T.U.W.W.W.W.K.U.I.#X$X$X$X$X$X( =XK.$XJ.I ; ( *X*X( J $X$X&X&X&X&XcXzXcX@XW.@XfX!.R.fXfXfX!.gXgXR.gX",
"j.j.j.j.T.R.T.Y.T.U.T.U.U.P.I.I.#X#X$X$X$X$X$X$XH.% J.qXJ.2.W * ( *X=XI R =X=X=X=X&X&X&XcXXXW.&X@X!.!.!.fXfX!.!.R.R.gXR.",
"j.j.j.T.j.Y.j.T.^.^.^.U.P.W.I.].#X#X$X$X$X$X%X%XK.* W =X3.2.W & ( =XJ.* R =X=XK.( ].&XXX*X&XP.&X@X@X!.!.!.!.!.R.hXR.gXY.",
"j.j.j.Y.Y.Y.T.T.^.U.U.P.I.I.Q.].$XK.$X$X%X%X%X%X%XR I 4.tX4.+.& ( =X2.% +.=XK.J.% H.0XXX&XxX$X&X@X@X@X@XW.!.!.fXE.R.T.hX",
"Y.Y.j.T.Y.^.^.^.L.^.P.P.I.].].]./.[.%X%X%XH.E 0XK.+.& +.K.4.+.& 2.$XW * W qX=XI $ H.*XAXXX].[.].#X@XQ.Q.W.W.E.W.E.R.!.T.",
"Y.Y.Y.Y.^.^.^.^.L.L.P.P.`.].].[.{.J..X6X6X2.= @.qX3.U - 4.4.Y + $.{.R @ 3.qXW I = {.%X&X XOXOX*X#X@XXX@XW.~.W.E.E.T.E.T.",
"Y.Y.^.^.^.E.L.^.P.P.P.`.].[.[. X%X%X.XJ.6X%X; - 2.K.U L %.4.T & = W J   K.K.L = = %X=X*X*XxXoX*XXX&X&XQ.~.Q.~.~.E.E.!.T.",
"L.^.^.^.^.^.~.L.P.`.`.].[.[.[.$X6X8X6X{.0XqX$.- - K.+.U L 4.+.& # = = & J.W J % E =XAXNX8XxXkXxXcXXX&XXXXXQ.Q.Q.E.E.!.E.",
"Y.L.^.E.~.~.~.`.P.`.].'.[. X%X.X0X6X6X6X6X6XJ.W - U 3.Y L Y T & @ = # E J.I I # J.0X=XxXxXNXVXXXkXXXXXXXjX&XXX!.~.~.~.E.",
"^.Y.L.~.~.L.~.`.`.`.`.[.[.%X.X<X*X6X6X6X6X0X6X2.W & I W T * P & + %   ( 2.J & & 2.0XAXZXNXxXAXxXxX&XxX&XXXXXjXXX~.~.~.~.",
"L.E.~.~.~.~.P.`.[.[.[. X X.X*X%X0X6X6X.X6XqXrXJ.W U & P P L Y & @ # # W I % @ = R 0XZXAXVXVXVXVXxXxXxXXXxX&XXXXXXX~.~.hX",
"E.~.L.~.~.+X`.XX`.'.'. X X*XoX%X0X6X8X0XK.H.qXqX$.+.- * U T L * % # J R * @ * = = xXZXxXVXZXVXVXxXxXjX*XXXjXjXXXjXE.~.~.",
"L.L.P.P.`.XXXX X'.[.}. XoXoX<X6X6X6X*XNX=XH.3.tXK.W U $ Y T T L & @ R % # % J # 2.ZXkXIXLXCXIXCXVXxX*XOXxXOX+XlXjXXX~.P.",
"^.P.P.P.`.`.'.'.'.}. XoXoX8X<X8X,XqXAXNXAX0X3.+.3.+.I K K +.T & & = # # % % # R $X$.+XUXIXLXVX*XVXVXNX8XNXxXkXXXjXXXW.P.",
"L.L.P.`.`.`.'.XX X X XoX*X<X8X1X7XSXFX8XFXrXqX3.U U L P - P T * & $     % % % ( @ $ [.AXVXZXZXLXLXVXVXxX8XNXNXxXjXjX~.P.",
"L.L.P.P.`.'.'. X}. X.XoX<X8X8X3XSXSXSX9XqXrXqXrX%.U - L P P P - : $ $ $ + @ +   R K.AXZXAXZXAXVXLXLXUXZXNXNXkXjXjXjX~.~.",
"L.L.L.`.`.'.'.'.OX XoXoX<X8X8XnXMXIXKXGXCXZXFX9XwX7.%.$ - - : a : $ . $ $ : E n.xXHX0XZXZXZXLXLXvXpXuXlXnXoXOXkXjXjXzXjX",
"L.L.L.`.`.'.'.}.OXoXoXoX8X8X8XBXmXMXGXHXHXZXJXJXrX5X%.: O.O.s a a ) s a h 5XDXPXHXZXZXFXAXAXIXiX7 7 3 lXZXNXNXVXxXlXjXjX",
"L.L.`./.`.'.'. X.XoX<X8X2X8X0X9XMX3XBXFXZXFXKXrX&.p &.&.<.' _  .s s s ' f f t.MXIXIXPXFXGXPXPXiXw.q.f.UXNX<XNXkXlXlXjXhX",
"L./.L.`.'.'.}.}.oX.X<X<X8X9X8X9X,XeXFXFXFXJX-Xh p m =.=.s ` ` x c c x w v C N X F.IXPXPXGXSXIXmXe.q.0.LXCXNXAX+XlXlXlXlX",
"/.L.`.`.'.}.}.}.oX<X<X1X8X7X9XeXeXrXBXGXrXO.0 x } *.m x c [ ` c M l z z l k r H N 5XKXDXKXKXPXiXw.q.uXUXCXNXNXVXlXlXlXjX",
"L./././.'.}.}..XoX:X<X8X8X9X9X9XqXrXGXMXO.o c ` [ [ [ -.[ c z c v z z M l v f r S B MXKXSXGXGXIXq.q.vXLXNXBXnX2XnXlXlXjX",
"/.L././.}.}..X|.oX<X1X1X9X9X9XBXeXFXPX5X0 G M [ ` :.:.:.;.[ z k b n l z z l k p f O #.PXPXGXIXLXw.q.vXLXNXHXBXnXkXlXjXjX",
"/././.{.}.}..X|.>X<X1X1X9X9XBX9XFXSXMXf H =.[ `  .5.{ 5.-.} c p f n l z z x k s 0 C O dXIXUXLXvXw.e.iXLXCXZX2XnXnXkXOXOX",
"/././.'.}.|.oXoX<X1X1X9X9X9X9XSXSXJX,.h G =.m -.5.5.{ { | _ x [ M q w M k k w q v f O b.UXmX0.f.l.y.iXLXBX9X2XBXkXOXOX'.",
"{./.(.'.}.}.oX:X1X1X1X9X9X9XSXeXDX5X&.m =.=.&.D.7.7.5. .` ` } ;.M M q q k k q k w 0 e O O 7 . 7 > > V.ZXCXCXnXnXnXnXOX}.",
"/./.(.}.}.|.oX:X1X1X9X9XSX9XSXSX3X5Xj 1.O.O.M.v.v.-X<.` ` -.*.' [ c M u 8 w n u t 8 e O G.dXCXjXlXLXLXAX2X2XBXnXnXOX X.X",
"/./.'.}.|.|.oX<X1X1X9X9X9XeXeXDXKX#.h 1.O.b.i.uXB.#.&.} } | [ x c M M b 9 9 u u t 9 r X G.IXHXLXLXLXLXHXCXmXBXnX2XoX.X.X",
"}.}.(..X.X:X:X>X>X6X,X7XeX7XeXJX5Xh &.1.A.3 x.bXN.B h } :. ._ _ c M x w u i 9 w y t r d S IXMXKXHXLXCXCXBXBXnX8X2XOXOXOX",
"/.(.(.(.).:X>X:X|.tX6X7XeXwXwXrX>.f =.,.S.y.c.bXiXZ m  ._  .-.c ` M x l n i u 9 q r r D e MXJXKXHXGXGXBXBXBXBXNX2XOXoXOX",
"/.(.(.(.)..X.X>X;X>X7X7XwXrXwX5XC 0 1.1.b.! bXpXsX6 &.}  .x =.*.M z M M M z w y r t t r X D.JXFXHXGXGXBXBXNXnXnX2XoXOX}.",
"(.(.(..X)..X>X:X>XtX7X7XwXwXrXtXC j _ :.#.n.iXuX6 A 1.[ [ [ M v b =.M l l y w l F 9 9 r e B DXGXGXGXGXCXBXNXNXNXOXOXOX}.",
"(./.(.).|.|.;X>X,X>X7XwXwXwXrXrX>.m ' m &.o.N.9.4 >.1.' ` *.G w w G l z z y z i u 9 t r d O eXFXGXGXFXBXBXnXNX2X2XOXOX+X",
"(.(.(.(.|.;X.X:X,X>X,XeXwXwXrXrXC =.[ ] ) O.#.@.D.<. . .[ ` v v v q z i z i i i 9 t k q r o MXGXGXGXSXBXBXBX8XNX2XOXOX}.",
"/._.(.(.|.|.;X:X>X>X,XwXwXrXwXtXj G ;.] 1.1.<.6.5.5.X.} [ c x =.*.v 9 i y 9 n z 9 b b w p e 5XKXGXGXSXSXBX3X2X8XOXoXOX}.",
"_./.(.(.).|.:X>X>X>X,X7XwXrXwX<.f =.[ } 5.<.1.-.5. .X.| ` x [ *.' G n 9 9 i i 9 y w k k b X 5XJXGXSXSXBXBXNXNX8X2XOXOX}.",
"A./._.(.).).:X:X>X>X,X3XwXeXrXO.v [ x | :.5.5.-... .-.[ p 1.-.' H u i i y q y y k w u b v o #.JXSXFXBXBX3X2X<X<X<XoXOX}.",
"_././.(.).:X:X>X>X7XeXeXwXwXKX,.p c } | :.:.5.| } [ [ m 1.1.>.S f F n H y 8 w w u f u u b 0 #.KXDXSXSX9XBX9X2X2XoX|.+X(.",
"C./._._.).|.).:X1X7XeX9XwXeXrX,.X ;.} X._ X...| | } m &.G.F.t.t.S S H n q w 9 t N B N t p j O.DXFXSXSXBX3X8X1X2X|.|.}.(.",
"A././._.).).:X:X3X7XeXeXeXeXrXO.8 =.} ` .... .X.} ' 1.D.B.r.r.sXt.B.D w w k F D B.t.t.D f p V DXDXSXSXeXBX2X8X1XOX|.).(.",
"Z.M.(.(._.;X;X:X3X3XeX5XwXeXeXO.] p `  .X.5.5.<.' 1.G.F.N.pXvXaXaXr.>.N b l f B.sX0.r.Z d h : MXDXSXeXBX9X1X2X2X).|.(.(.",
"Z././._._._.).-X>X>X,X,XeXwX5Xo.] [ s } | -.6.] ' <.D.iXf.bXpXuXaXaXsXD b y D B.k.q.0.9.d d o DXSXSX9X9X3X1X2X<X).}.(.(.",
"M./.M.(._._.;X;X>X;X;X,XeX5X-Xg &.] ;.x  .| _ .. .5.A.f.c.c.z.yXaXpXiXZ r H S N.l.z.k.r.B d 1 MXSX3X9X3X1X1X<X:X|.(.(./.",
"/.Z.Z._._._._.;X;X>X,X,X,XwXeX%.a =.=.*.` _ _ X.X.:.M.yXz.c.l.l.yXyXyXr.D D D r.l.z.k.N.A d @.HXeXeX9X,X1X>X:X|.).(._./.",
"M./.Z.A._.;X_.;X-X;X,X,X,XrXwX,.o :.` } [ x ` -...<.B.k.w.z.l.pXk.w.pXyXD F f A N.yXsXZ 6 : D.rX9X9X7X1X>X>X).|.).(.(./.",
"Z.A.A././.A.;X_.>X>X>X,X-XwXwXD.d ] [ ` *.;._ ' ] >.iXyXpXz.l.uXpXw.pXyXe u b r t.r.Z 6 V : D.wXwX7X,X,X,X:X:X:X_._.+XC.",
"Z.A.A.A._._.A.;X;X;X-X>X,X,X7X5XC m [ c <.;.[ _ _ O.iXyXpXk.pXk.k.yXpXyXB n b t e N e e A @.5X9X7X,X,X,X>X;X;X_._.+XA.A.",
"C.C.C.A.A.A._.;X).;X;X;X,X,X,XrXO.h x ' ;.[  .{ _ &.B.N.k.w.k.f.0.yXpXN.e b y u H f f f B M.SX9X7X3X3X,X>X;X;X;XF.A.A.C.",
"C.C.C.C.A._._._._.)._.;X-X_.;XeXG.j m ] m ] _ ..{ ) n.sXpXpXpXuXuXyXpXr.X q y y b r f C 6 B.4XBX3X3X3X>X;X_._.A.A.A.C.C.",
"V.V.C.C.C._.A.A.4X).;X:X:X;X;XMXF.6 g ] &.:.......) @.N.vXvXUXvXvXvXuXN.p l l v f C h O.D.A n.;X3X3X4X4X4XF.;XA.A.C.C.Z.",
"V.V.Z.V.Z.C.C.+X+X).:X2X2X4X3XBXmXb.V O.%.{ { ) ..) @.v.aXvXvXuXpXvXuXv.,.:.] ] O.#.o.#.A.@.n.BX4X4X4X;X+X;X_.A.C.C.Z.S.",
"V.V.V.V.V.Z.Z.Z.n.n.S.n.n.n.M.n.v.v.@.g %.7.%.) ) o.Q i.N.f.0.f.f.f.f.u.O.1.{ g 1 4 1 E v.n.@.M.n.n.n.n.M.S.M.S.Z.Z.Z.V.",
"2 2 2 3 3 , , , , , , , , , , , < 4 o.o.@.#.o.%.U E 5 5 8.8.5 3 y.8.3 3 o.%.%.o.^ y.d.! Q R < 1 , < < < < < 2 < 4 2 2 2 ",
"3 < 3 2 2 4 4 4 5 5 4 5 Q Q Q Q 5 4 E 4 / @.@./ 4 Q s.9.s.y.! ! y.y.y.^ / o.o.W / ! y.y./ Q Q ~ Q Q ! / ! ^ ! ! ! ! ! ! ",
"5 5 5 5 ! u.u.u.u.u.u.~ ~ ~ u.~ s.^ ^ ^ ~ ~ ~ ^ s.y.s.s.a.s.d.s.s.a.d.d.^ ! / p./ ^ d.y.u.^ p.p.^ p.p.p.p.p.p.p.p.p.s.p.",
"a.v.a.v.v.i.u.u.u.u.u.u.u.u.u.u.p.p.p.p.p.m.v.v.d.a.a.a.a.a.a.d.a.a.d.( a.a.a.p.p.d.a.d.p.d.p.d.d.p.p.p.a.d.a.d.a.d.a.a."
};
