/* XPM */
static char *_e53975c67d9402f9becb4df024dcf7dh7tvj8WMPf0XHtst[] = {
/* columns rows colors chars-per-pixel */
"60 60 242 2 ",
"   c #000000",
".  c #030403",
"X  c #06100A",
"o  c #0D260F",
"O  c #001432",
"+  c #002530",
"@  c #293530",
"#  c #2A0024",
"$  c #463C3C",
"%  c #387206",
"&  c #36503B",
"*  c #366934",
"=  c #1B5701",
"-  c #4D4B3D",
";  c #447C31",
":  c #000750",
">  c #002747",
",  c #053359",
"<  c #293B49",
"1  c #01086C",
"2  c #002A73",
"3  c #003979",
"4  c #0E3669",
"5  c #304B52",
"6  c #0B4672",
"7  c #2F506A",
"8  c #37696B",
"9  c #4B5556",
"0  c #575A58",
"q  c #52514C",
"w  c #685746",
"e  c #725C4D",
"r  c #6C4D53",
"t  c #67595A",
"y  c #775A5C",
"u  c #4C734A",
"i  c #716A58",
"p  c #51576E",
"a  c #6D5C64",
"s  c #5C6462",
"d  c #6A6668",
"f  c #796A69",
"g  c #767A76",
"h  c #707769",
"j  c #866B67",
"k  c #877568",
"l  c #94776C",
"z  c #8A7577",
"x  c #98797A",
"c  c #8F6D73",
"v  c #8D6B66",
"b  c #0A9601",
"n  c #2EAE09",
"m  c #35AD28",
"M  c #358F26",
"N  c #438B01",
"B  c #40BF00",
"V  c #438637",
"C  c #448F2A",
"Z  c #4AB132",
"A  c #50CB15",
"S  c #49C734",
"D  c #56D434",
"F  c #6CE538",
"G  c #63D92A",
"H  c #3F8747",
"J  c #53934E",
"K  c #56AE49",
"L  c #768675",
"P  c #6FA26E",
"I  c #5ACE46",
"U  c #64D34A",
"Y  c #68DC53",
"T  c #68EA49",
"R  c #6EEC54",
"E  c #6AE550",
"W  c #71ED55",
"Q  c #72EE5B",
"!  c #71F356",
"~  c #75F45A",
"^  c #78F75E",
"/  c #6FF151",
"(  c #79ED67",
")  c #7AF465",
"_  c #7BF867",
"`  c #62D951",
"'  c #8E837A",
"]  c #A9827B",
"[  c #83ED74",
"{  c #00338A",
"}  c #003C9A",
"|  c #0A298B",
" . c #0139A7",
".. c #0038B5",
"X. c #203087",
"o. c #0B4C92",
"O. c #2B568A",
"+. c #31619A",
"@. c #0049B6",
"#. c #0257BB",
"$. c #104FAA",
"%. c #284DB0",
"&. c #2663B3",
"*. c #336ABD",
"=. c #465A86",
"-. c #55688E",
";. c #4D69AE",
":. c #596CA6",
">. c #0148C3",
",. c #015AC9",
"<. c #1659C8",
"1. c #0058D5",
"2. c #0F50D7",
"3. c #295AC9",
"4. c #3058D0",
"5. c #3967CB",
"6. c #3568DB",
"7. c #3A73DA",
"8. c #2B69D4",
"9. c #015BE4",
"0. c #0058E8",
"q. c #0662E9",
"w. c #1B66E7",
"e. c #2C66E6",
"r. c #2F69E7",
"t. c #2D67E9",
"y. c #2F69E9",
"u. c #2469E9",
"i. c #3167E5",
"p. c #326BE7",
"a. c #3167E9",
"s. c #316BEA",
"d. c #3A6EED",
"f. c #3B6BE7",
"g. c #3672E6",
"h. c #3671EA",
"j. c #3B74EA",
"k. c #3C75E7",
"l. c #3A6FF1",
"z. c #346EF1",
"x. c #3D72F2",
"c. c #3773F0",
"v. c #2B71ED",
"b. c #1068D6",
"n. c #4872D9",
"m. c #4276EB",
"M. c #437AEA",
"N. c #497DEB",
"B. c #4378E3",
"V. c #4174F2",
"C. c #487CF1",
"Z. c #9A7D84",
"A. c #A77D87",
"S. c #7D848F",
"D. c #7786A6",
"F. c #7D92B5",
"G. c #4D82EB",
"H. c #4D81E4",
"J. c #5285EB",
"K. c #588AEA",
"L. c #5887F2",
"P. c #4C83F3",
"I. c #6C93EA",
"U. c #6F8FD7",
"Y. c #898B88",
"T. c #8A918D",
"R. c #969A99",
"E. c #958A8B",
"W. c #A88687",
"Q. c #B38D8A",
"!. c #BB8E96",
"~. c #B99598",
"^. c #A39698",
"/. c #97A19C",
"(. c #A1A196",
"). c #8B94A9",
"_. c #989AA5",
"`. c #868EA7",
"'. c #BC9DA2",
"]. c #A89FA4",
"[. c #9DA5AB",
"{. c #A6A9A9",
"}. c #AAB2AB",
"|. c #ADB3B2",
" X c #B9BABA",
".X c #B5ACAB",
"XX c #C39B9D",
"oX c #C59798",
"OX c #C0958F",
"+X c #C89DA4",
"@X c #D09DA6",
"#X c #CCA4A8",
"$X c #D3A5AC",
"%X c #D5A6A9",
"&X c #DCACB3",
"*X c #D5AAB2",
"=X c #DCB1B9",
"-X c #D9B4B9",
";X c #C6AEB4",
":X c #E3AEB6",
">X c #E4AFBA",
",X c #E3B1B6",
"<X c #E5B2BA",
"1X c #E9B5BD",
"2X c #EBB8BF",
"3X c #E6B9BE",
"4X c #C8A59F",
"5X c #BAC0BE",
"6X c #92F983",
"7X c #C1C1B9",
"8X c #BDBAC2",
"9X c #85A4E6",
"0X c #9AB6ED",
"qX c #D9BAC9",
"wX c #EBB6C1",
"eX c #E6BAC2",
"rX c #ECBAC3",
"tX c #EDBEC8",
"yX c #F2BBC5",
"uX c #BFC4C4",
"iX c #C9C9C9",
"pX c #CFD1CB",
"aX c #CDD3D5",
"sX c #D5D6D4",
"dX c #D9DADA",
"fX c #D1D1CD",
"gX c #EDC3CA",
"hX c #E7C1C7",
"jX c #EEC9CF",
"kX c #DEE2DE",
"lX c #DADDE4",
"zX c #E4E5E5",
"xX c #EBEDEB",
"cX c #E7EAE7",
"vX c #EEF1EB",
"bX c #F3F5EF",
"nX c #F3F4F3",
"mX c #F9FBF6",
"MX c #FDFDFC",
"NX c #F6F9F7",
"BX c #ECF1F2",
"VX c #E1E4E2",
/* pixels */
"r.a.s.y.a.y.s.y.y.s.a.y.s.y.y.a.y.a.s.s.a.y.s.a.y.s.s.y.y.y.s.a.s.y.s.s.a.s.s.s.y.y.a.y.s.s.y.a.s.s.s.r.h.h.s.s.s.s.h.h.",
"s.a.y.s.s.y.y.s.a.y.s.s.y.s.s.s.s.h.s.a.s.y.y.s.s.h.s.s.s.y.y.s.s.y.y.r.u.y.a.r.g.k.s.s.s.s.y.s.s.h.s.y.h.g.s.p.s.s.h.s.",
"a.s.y.s.r.y.z.t.y.p.r.h.h.s.a.s.M.N.h.s.s.s.a.y.y.h.y.y.s.y.s.s.y.s.r.g.V.N.j.s.P.j.s.s.h.y.y.s.s.s.r.y.h.s.s.r.s.y.s.y.",
"y.y.s.s.p.p.y.t.s.y.p.s.s.s.a.s.r.r.y.y.a.s.s.k.M.k.y.s.s.y.s.r.r.r.c.k.*.o.3 6 o.6.y.p.h.y.a.s.r.s.s.h.h.s.p.y.s.s.y.s.",
"y.y.s.y.y.s.r.h.k.x.s.y.t.f.l.l.d.d.d.d.s.y.r.K.J.h.t.z.s.s.a.a.y.j.<., k ~.].;X' > p.p.a.a.y.s.y.y.y.h.y.s.s.s.s.y.y.y.",
"y.z.y.s.a.s.s.<.8.>. .%.;.$...>.1.1.9.9.e.s.y.G.M.h.p.a.y.s.y.l.r.6 i #XyXwXrX2XhX0 @.x.s.a.a.s.y.y.p.p.s.s.s.y.a.y.a.s.",
"a.s.y.y.z.c.o.F.uXfXzXBXzXlXaXiX;X{.`.`.=.3.v.k.M.p.a.s.s.p.x.<.< Q.rX1X<X<X1XrXjXi @.c.p.y.a.y.s.y.y.s.y.r.y.s.y.s.s.y.",
"y.s.t.m.N.w.-.BXMXxXsXzXMXMXMXMXBXmXmXMX|.>.c.k.k.t.s.p.t.C.#.- $XrX:X,X<X<X:XgX;XO p.s.r.a.y.s.y.s.s.s.p.s.y.a.s.y.s.s.",
"s.s.h.K.N.q.:.mXkXpXcXpXMXnXsX XfXkXMXMX;X>.V.p.s.y.a.i.V.$.q -XwX<X<X<X<X,X<XhXw @.x.y.s.y.r.y.s.h.r.a.s.y.s.a.s.s.y.s.",
"y.h.G.I.N.q.:.bXbXMXdX.XmXMXpX{.xXsXNXMXpX..l.r.a.y.r.l.#.w -XrX:X<X<X<X<X,XyX4X: k.y.h.y.s.a.s.h.h.y.r.r.y.y.s.y.s.s.y.",
"r.j.P.J.N.1.S.mXvXpX XiXBXMXnXdXcXiXnXMXpX .l.r.s.t.l.@.w =XrX,X<X<X<X<X,X<XeXe #.x.r.y.s.y.s.g.h.y.a.s.s.p.a.y.y.s.s.y.",
"y.j.j.C.N.9.D.mXbXxXsXdXBXNXNXsXiXbXMXMXsX..l.e.r.j.,.w =XrX<X<XeX<X<X>X,X1X=X5 7.h.h.h.r.s.g.h.s.y.y.p.y.s.r.s.h.p.a.s.",
"s.s.g.M.k.0.D.mXMXMXMXMXNXNXMXNXbXvXkXaXD.@.d.e.p.,.q &X1X:X<X1X<X<X<X>X,X2X4X4 G.h.s.s.s.s.s.r.y.s.y.z.y.t.s.y.y.y.p.s.",
"y.h.h.s.a.w.-.{.[.[._.).)._.`.D.:.;.%.@.@.6.r.d.7.t &X1X&X,X<X1X3X<X<X<X,X2XoX6 k.y.s.y.s.y.h.a.s.s.a.s.a.s.r.s.s.s.y.r.",
"s.h.s.p.d.1.D.I.0.1.9.9.u.w.q.q.w.u.z.c.s.s.C.B.2 l eX1X1XrX,X1XyX1X<X<X:X1XoX7 M.s.s.s.a.s.y.s.s.s.y.y.y.a.s.s.s.y.h.h.",
"s.h.s.s.a.u.:.M.a.V.f.d.h.h.h.d.s.s.s.y.r.B.$.0 Y.R.d ~.~.y f f z >X<X&X<X1XXX7 L.y.p.p.a.y.s.s.y.s.y.s.s.s.s.y.s.r.y.h.",
"s.h.s.y.j.B.`.I.q.s.s.N.G.k.k.s.s.c.a.s.a.2 ^.nXMXMXxX+ g cXxXvX|.f rX<X>X<X%X9 n.s.a.s.s.y.s.y.a.a.p.a.a.d.j.h.s.r.h.h.",
"s.s.s.y.N.=.q o.p.s.t.G.K.j.G.p.h.h.t.x.| (.MXzX}.vXzX0 nXnXxXMXMXg $XwX>X<X1Xe #.c.y.y.a.y.y.s.a.i.t.j.j.,.<.B.j.r.s.s.",
"s.h.y.x.} ] hXl 1 V.s.k.K.j.m.a.h.s.t.l.1 sXMXg    X}.^.NX. T.MXMXR.XXyX,X:XwXx } x.y.y.s.y.a.r.t.x.f.#.4 f q O.j.y.h.y.",
"s.h.y.l.o.Q.yX2Xx 1 7.L.G.h.p.a.s.a.y.d.: dXMXT.  xX{.|.zX  {.MXNX' *X1XeX3XtX#X> k.s.s.s.r.r.x.J.&.4 l +XrX$X> p.s.h.p.",
"s.h.s.V.#.j 1X:X2X~.- #.k.j.V.s.s.h.e.x.{ .XMXNXNXzX@ R.MXdXNXMX/.r 2X,X1X3XeXqX8 O.j.r.r.d.f.#.7 l %XrX<X2X] 3 C.h.h.s.",
"s.h.h.c.N.6 *X2X,XyX%Xj 2 @.,.6.h.N.z.x.O.X uXzX{.@ W.q sXnXcXY.r <X2X,X<XeXeX1X_.O 7.d.j.1.2 k %XwX1X,X,XeXe *.x.s.s.y.",
"y.h.k.a.C.&.h eX,X,X3X3XXX] f 7 6 3 $.| ] &Xy r c >XwX!.t t t A.2XW.=X1X,XeX<X>XwXW.3 7.o.t XXwX1X,X<X:X2X%X+ k.y.s.p.r.",
"r.s.j.h.y.N.2 ^.2X,X,X,X1X2X1X*X+X#Xi e yXXX,XgXwX>X:X2X2X2X2X1X~.. f ,X1X3X3X1X+XA.o j OX>XwX:X<X,X<X:XeXj  .l.p.p.y.y.",
"a.h.k.s.a.c.5.5 qX<X<X<X,X:X<X,XyX+Xf =XrX~.t #X1X1X:X%XOXc y a   A.$X:X>X<X,X1XXXW.%X1X2X,X>X<X<X<X:X1X'.O 6.p.r.a.s.s.",
"y.y.h.h.s.r.c.o.' gX,X,X<X<XeXrX+Xt &X1X=X<X@X@ f Z.f g R.qXdXdX9 @X2X>X:X1X<X1XyX2X<X>X:X<X,X<X,X<X<X&X& $.l.p.s.y.y.y.",
"s.y.g.k.a.a.t.k.6 ~.tX=X<X:X2X$X0 &X1X>X>XwX$Xg fX8XVXBXaXiXsXT.x wX:X>X<X<X1X<X,X>X,X>X<X>X<X<X<X>XwXf { x.a.s.y.y.s.s.",
"s.r.h.h.p.a.a.s.J.6 Q.hX<X:X2Xt +X2X:X<X=X'.t s ].Y.R.R. XsXd a yX,X<X<X<X<X<X<X<X:X<X<X<X<X>X:X:XeX^.: f.s.g.s.y.s.s.p.",
"p.y.y.h.h.h.y.e.s.J.-.] >XyXW.z yX>X>X1XeXE.   XMXMXsXNXMXiXt =X<X>X<X>X<X<X<X<X>X>X<X<X<X>X<X<XeX_.X 5.p.p.s.p.y.s.s.y.",
"a.s.y.s.j.r.r.y.y.h.I.).k '.t &X<X>X>X<X,XyX$Xx R.|. X.Xg j *X<X:X<X<X<X<X<X>X<X<X<X<X>X<X,X:XwX~.X 3.h.a.s.a.s.s.y.y.y.",
"y.s.a.h.g.s.r.y.a.a.u.L.I.7 Q.wX:X<X>X>X>X>X<X<X@X!.Q.!.$XwXwX>X>X<X>X>X<X<X<X<X<X<X<X<X<X,X2X~.O 3.z.p.s.p.p.s.s.h.y.p.",
"y.s.y.s.h.s.s.r.a.a.i.e.1.d 1X>X>X<X<X>X<X<X,X1XwXwX2XwX1X>X>X>X,X<X>X<X<X>X>X<X>X>X>X>X<X2XW.> 8.h.h.h.s.a.s.y.y.y.s.s.",
"s.y.a.s.h.h.h.h.r.h.k.P.o.Q.1X=X<X<X<X>X>X>X<XeX<X<X&X<XeXhX<X<X<X,X,X<X<X<X:X>X>X<X<X<X>XA.h 9Xv.a.h.h.a.p.y.a.p.s.s.h.",
"y.s.s.s.k.h.M.G.k.G.K.H.p %X<X<X>X<X<X>X<X1X:X3X1X1X<X1XhXeX<X1X3X,X,X<X>X>X<X<X>X>X>X1XZ.o ).L.u.s.h.s.s.r.y.s.y.r.h.g.",
"a.y.a.h.k.h.h.k.N.j.j.8.j 1X>X>X<X>X<X<X1X,X<X3X3X2XeX<X,X<X,X,X<X,X<X<X<X>X<X>X>X<X>X<X$X&Xe @.l.r.s.s.a.y.y.a.s.h.h.h.",
"s.y.r.h.k.s.s.s.h.y.V.o.] wX>X<X<X,X<X3XrX1X1X1X1X<X:X<X,X<X<X<X<X<X,X<X<X<X<X>X>X1X>X>X<XwX] } x.r.s.p.s.s.y.s.s.p.h.h.",
"y.s.a.h.s.y.y.a.s.y.x.7 @X1X>X<X<X<X<X<X1X<X<X<X<X,X<X<X<X<X<X<X,X1X<X<X>X>X>X<X>XwX>X>X>X1Xw ,.l.a.y.s.s.y.y.s.r.s.s.r.",
"r.s.y.h.p.s.p.s.s.v.P., #X2X:X,X1X<X1XeX<X,X<X<X<X<X<X<X<X>X<X,X<X<X<X<X>X<X<X>X>X>X>X&XtXQ.3 5.y.p.a.y.s.s.s.y.y.p.s.y.",
"s.y.s.h.h.y.p.y.s.y.B.+ $ 1XyX<X1X<X1XeX<X<X>XeXeX,X<X<X>X1X1X,X<X<X1X<X<X>X<X>X>X>X=XtX#Xq lX7 <.d.y.y.y.y.s.s.r.s.y.a.",
"r.a.h.h.s.y.y.h.y.c.1.h .X. W.<XgXwX*X$X#XW.wXtXhX,X<X1X<XwX<X<X<X<X1X3X<X>X>X=X1XtXtX~.@ cXdX. 3.z.a.s.y.s.y.s.p.y.y.s.",
"y.y.h.k.s.s.s.s.y.s.n.  sXzXT.$ Z.*XeXZ.!.!.$X=X<X>X=X>X>X:X&X>X<X>X,XyXwX2XwXeX$XE.f L zXiX= 7 a.a.a.s.z.y.y.s.s.y.y.y.",
"y.y.h.h.h.s.r.s.a.c.5.N M 8XNXxX{.s a f f z k 1XgXrXwXeXwXwXwXwX2X2XgXkX-X+XA.w d |.7XiXg b T 8 t.s.s.y.y.t.s.s.s.y.s.y.",
"y.y.h.j.s.s.y.s.p.h.6.C / n s  XnXMXzX XY.f a f W.'.;X-X+X!.oXoXoXA.t s d g [.dXkX}.J M D ^ F 8 a.s.a.s.a.a.y.s.s.y.y.h.",
"y.s.h.k.s.h.y.h.s.a.k.X.A _ E n ; R.iXzXBXBXcXaX|.R.T.T.R./.R.R.T.{.dXnXNXNXsX{.V n T Q ~ R F O.s.s.s.p.s.a.s.r.r.p.h.h.",
"s.y.s.k.g.s.r.s.s.u.j.n.% R Q ) T ` Z b J L T._.]._._.{..XpXfXfXiXqX8XR.T.h b B / ^ W R R ! A %.h.a.s.s.y.y.p.a.s.h.y.h.",
"y.y.h.j.g.s.r.h.h.a.r.P.;.% _ R R ) ( ~ T T G D I D I S m n J K P n n A D T ! ^ R R W R ) _ V n.v.a.h.p.s.y.y.s.y.s.y.h.",
"s.y.s.j.h.s.p.h.k.s.y.s.5.. P 6X( E Q R R Q ~ Q ^ _ ) ) _ _ [ [ _ _ ^ ~ ! Q R Q Q W R R Y % -.L.w.s.s.y.y.y.p.y.s.s.s.g.",
"y.s.y.k.h.s.a.h.k.h.p.s.*.Z H h 6X_ R R ( Q Q W R Q ( W ( ) / W ( Q R / Q R R R ! W R ) Z f 0Xv.a.y.s.a.y.a.y.y.y.s.s.j.",
"a.s.s.j.h.y.s.h.k.h.y.h.3.Z ^ Z 0 P ( _ ~ Q Q ( W W W W W W W W _ Q W / W / W W W R R ^ A R.0X0.a.a.y.s.y.a.a.y.r.s.h.k.",
"s.y.s.s.h.h.s.h.j.s.y.h.6.u W ~ [ K 9 K U R / ! ! / W / W W ~ I ` ! / ! W W W W W W R ~ A =.L.u.t.z.s.y.y.y.y.s.y.s.r.k.",
"s.y.y.s.h.h.s.h.h.y.y.t.C.-.F ) / ! E Z C H V K U T ! ^ Q R / M K ! / / W W W W W W E ) G X.l.a.y.y.s.s.y.s.s.y.y.h.v.P.",
"y.s.s.s.s.h.s.y.r.s.y.r.h.U.; U ( ( R T T D K # < u * u ; & 5 9 * / ! ^ ~ ~ ~ ~ ~ ~ ! Y % %.a.a.a.s.y.a.y.y.s.s.y.h.g.G.",
"p.y.y.s.s.s.s.s.s.y.a.s.y.j.B.-.s ' L k z ' u O.I.I.n.2.4.6.6.I.=.; K m S S S D Z m J @ %.x.t.s.y.s.s.y.z.y.a.s.h.g.h.J.",
"a.y.s.h.s.p.s.y.y.a.s.y.a.a.d.K.g <X&X1X3XrXl #.x.u.y.z.v.s.j.v.C.;.t ;XA.A.A.g Y.!.$X9 w.s.t.y.s.s.a.s.y.t.s.s.g.h.j.J.",
"y.s.s.r.y.p.s.r.s.y.p.a.a.s.r.j.+.OXwX:X:X,Xy 1.d.p.p.s.y.y.h.M.z.z.+.+XyX<XwX<X<XyXoX{ z.a.a.s.s.y.s.y.a.y.s.h.h.h.k.G.",
"y.p.h.h.s.y.s.p.s.y.y.s.s.s.s.w.9Xk +XrX1X#Xp v.s.y.a.s.s.y.h.M.j.a.w.7 %XwX:X:X,X,Xr 1.s.r.y.s.y.s.a.r.s.y.p.h.j.j.k.G.",
"p.r.h.s.h.y.r.r.s.y.y.p.s.h.h.u.I.U.6 x eXQ.o.V.r.a.a.y.h.s.s.M.m.a.h.r.p OXrXgXjXl  .x.t.s.y.y.s.s.y.s.r.y.p.h.k.k.k.G.",
"y.h.h.s.s.h.r.s.s.h.r.y.r.s.y.s.8.v.j.#.p =.w.p.p.y.y.p.s.s.h.k.h.a.r.h.k.+.z  Xi > p.y.y.y.s.a.s.y.a.y.a.y.s.h.h.k.j.G.",
"y.h.s.s.h.h.s.h.h.h.s.s.s.a.y.a.s.p.i.l.k.c.s.a.s.y.r.p.s.h.s.g.h.a.y.r.s.C.b.&.F.B.y.a.a.a.z.a.y.s.s.s.a.y.s.h.j.j.x.G.",
"y.y.r.h.y.g.j.g.g.p.r.s.a.s.s.s.p.a.a.i.a.a.a.p.s.s.y.s.s.h.s.s.y.r.s.r.p.s.j.C.C.y.s.s.y.y.y.s.s.a.y.y.y.y.s.h.g.k.k.P."
};
